<?xml version="1.0" encoding="utf-8"?>
<!-- Generator: Adobe Illustrator 22.1.0, SVG Export Plug-In . SVG Version: 6.00 Build 0)  -->
<svg version="1.1" id="Слой_1" xmlns="http://www.w3.org/2000/svg" xmlns:xlink="http://www.w3.org/1999/xlink" x="0px" y="0px"
	 viewBox="0 0 36 36" style="enable-background:new 0 0 36 36;" xml:space="preserve">
<style type="text/css">
	.st0{fill:#E2E0E0;}
	.st1{fill:#1A3042;}
</style>
<path class="st0" d="M18,1c9.4,0,17,7.6,17,17s-7.6,17-17,17S1,27.4,1,18c0-4,1.4-7.8,3.9-10.8C8.1,3.3,12.9,1,18,1"/>
<title>cluster_frame_b</title>
<path class="st1" d="M18,0.7C8.5,0.7,0.7,8.5,0.7,18S8.5,35.3,18,35.3S35.3,27.5,35.3,18S27.5,0.7,18,0.7z M18.1,30.7
	c-7,0-12.6-5.7-12.6-12.6c0-2.9,1.1-5.8,2.8-7.9c2.4-2.9,6-4.7,9.8-4.7c7,0,12.6,5.7,12.6,12.6S25.1,30.7,18.1,30.7z"/>
<g>
	<polygon class="st1" points="22.2,22.1 22.2,22.7 24.1,23.9 24.1,20.9 	"/>
	<rect x="14.2" y="20.1" class="st1" width="7.3" height="4.9"/>
</g>
</svg>
