<svg id="Слой_1" xmlns="http://www.w3.org/2000/svg" viewBox="0 0 20.8 21.8"><style>.st0{fill:#fff}</style><path class="st0" d="M14 12.3l-.6-.2.5-.4c3-1.9 3.8-5.9 1.9-8.9S9.9-.9 6.9 1 3.1 6.9 5 9.9c.5.7 1.1 1.4 1.9 1.9l.5.4-.6.2c-4 1.5-6.7 5.2-6.8 9.5h1.2c.2-5.1 4.6-9.1 9.7-8.8 4.8.2 8.6 4 8.8 8.8h1.2c-.2-4.4-2.9-8.1-6.9-9.6M5.2 6.4c0-2.9 2.4-5.2 5.2-5.2s5.2 2.4 5.2 5.2c0 2.9-2.3 5.2-5.2 5.2-2.9.1-5.2-2.3-5.2-5.2"/><path class="st0" d="M14 12.3l-.6-.2.5-.4c3-1.9 3.8-5.9 1.9-8.9S9.9-.9 6.9 1 3.1 6.9 5 9.9c.5.7 1.1 1.4 1.9 1.9l.5.4-.6.2c-4 1.5-6.7 5.2-6.8 9.5h1.2c.2-5.1 4.6-9.1 9.7-8.8 4.8.2 8.6 4 8.8 8.8h1.2c-.2-4.4-2.9-8.1-6.9-9.6M5.2 6.4c0-2.9 2.4-5.2 5.2-5.2s5.2 2.4 5.2 5.2c0 2.9-2.3 5.2-5.2 5.2-2.9.1-5.2-2.3-5.2-5.2"/></svg>