<svg xmlns="http://www.w3.org/2000/svg" viewBox="0 0 16.64 16.64"><g data-name="Слой 2"><path d="M2.44 2.44A8 8 0 0 1 8.32 0a8 8 0 0 1 5.88 2.44 8 8 0 0 1 2.44 5.88 8 8 0 0 1-2.44 5.88 8 8 0 0 1-5.88 2.44 8 8 0 0 1-5.88-2.44A8 8 0 0 1 0 8.32a8 8 0 0 1 2.44-5.88zM3.61 13a6.46 6.46 0 0 0 4.71 2A6.46 6.46 0 0 0 13 13a6.46 6.46 0 0 0 2-4.71 6.46 6.46 0 0 0-2-4.71 6.46 6.46 0 0 0-4.71-2 6.46 6.46 0 0 0-4.71 2 6.46 6.46 0 0 0-2 4.71A6.46 6.46 0 0 0 3.61 13zM7.5 4.14h1.64v5H7.5zm0 6.68h1.64v1.68H7.5z" fill="#f9fff2" data-name="Layer 1"/></g></svg>