<?xml version="1.0" encoding="utf-8"?>
<!-- Generator: Adobe Illustrator 22.1.0, SVG Export Plug-In . SVG Version: 6.00 Build 0)  -->
<svg version="1.1" id="Слой_1" xmlns="http://www.w3.org/2000/svg" xmlns:xlink="http://www.w3.org/1999/xlink" x="0px" y="0px"
	 viewBox="0 0 17.4 27.2" style="enable-background:new 0 0 17.4 27.2;" xml:space="preserve">
<style type="text/css">
	.st0{opacity:0.65;}
	.st1{fill:#FFFFFF;}
</style>
<g class="st0">
	<path class="st1" d="M8.8,27.2L8,25.9C5.7,22.5,3.6,19,1.7,15.4C0.7,13.3,0.1,11,0,8.6c0-2.3,1-4.5,2.7-6.1C4.3,0.9,6.5,0,8.8,0
		c2.3,0,4.5,0.9,6.1,2.5c1.7,1.6,2.6,3.8,2.5,6.1c0,2.2-0.6,4.4-1.6,6.4c-1,2.2-2.9,5.5-5.7,10L8.8,27.2z M13.6,3.9
		c-1.3-1.3-3-2-4.8-2C7,1.8,5.2,2.6,4,3.9c-1.3,1.3-2,3-2,4.8c0.1,2,0.6,4,1.5,5.8c1.6,3.2,3.3,6.2,5.3,9.2c2.5-4.1,4.3-7.2,5.3-9.3
		c0.9-1.8,1.4-3.7,1.5-5.7C15.6,6.9,14.9,5.1,13.6,3.9z"/>
</g>
</svg>
