<svg xmlns="http://www.w3.org/2000/svg" viewBox="0 0 13.4 17.89"><g data-name="Слой 2"><path d="M5.82 14.88L0 13.75l.31-1.68 4.1.82 1.33-6.76-1.52.59v2.85H2.58V5.66l4.34-1.83a1.77 1.77 0 0 0 .33 0 1.6 1.6 0 0 1 .33 0A1.71 1.71 0 0 1 9 4.57l.81 1.33a3.82 3.82 0 0 0 3.59 2v1.67A5.79 5.79 0 0 1 8.83 7.5L8.32 10l1.76 1.64v6.25H8.4v-5l-1.76-1.64zM10 2.81a1.53 1.53 0 0 1-1.15.51 1.61 1.61 0 0 1-1.17-.51 1.61 1.61 0 0 1-.51-1.17A1.53 1.53 0 0 1 7.66.49 1.63 1.63 0 0 1 8.83 0 1.55 1.55 0 0 1 10 .49a1.55 1.55 0 0 1 .49 1.15A1.63 1.63 0 0 1 10 2.81z" fill="#f9fff2" data-name="Layer 1"/></g></svg>