<?xml version="1.0" encoding="utf-8"?>
<!-- Generator: Adobe Illustrator 22.1.0, SVG Export Plug-In . SVG Version: 6.00 Build 0)  -->
<svg version="1.1" id="Слой_1" xmlns="http://www.w3.org/2000/svg" xmlns:xlink="http://www.w3.org/1999/xlink" x="0px" y="0px"
	 viewBox="0 0 16 16.2" style="enable-background:new 0 0 16 16.2;" xml:space="preserve">
<style type="text/css">
	.st0{fill:#FFFFFF;}
</style>
<title>icon-alarmclock-white</title>
<g id="Слой_2_1_">
	<g id="Layer_1">
		<path class="st0" d="M4.7,1.2L1,4.3L0,3.1L3.7,0L4.7,1.2z M2.9,3.8C4.2,2.4,6.1,1.7,8,1.7c1.9,0,3.8,0.7,5.1,2.1
			c1.4,1.3,2.1,3.2,2.1,5.1c0,1.9-0.7,3.7-2.1,5.1c-1.3,1.4-3.2,2.2-5.1,2.2c-1.9,0-3.8-0.8-5.1-2.2c-1.4-1.3-2.1-3.2-2.1-5.1
			C0.8,7,1.5,5.2,2.9,3.8z M4.1,12.9c1,1.1,2.5,1.7,4,1.7c1.5,0,3-0.6,4-1.7c1.1-1.1,1.7-2.5,1.6-4C13.7,7.4,13.1,6,12,5
			c-1-1.1-2.5-1.7-4-1.7C6.5,3.3,5.1,3.9,4.1,5C3,6,2.4,7.5,2.4,9C2.4,10.5,3,11.9,4.1,12.9z M5.6,7.3V5.7h4.8v1.4l-2.9,3.4h2.9v1.6
			H5.6v-1.5l2.9-3.3H5.6z M16,3.1l-1,1.2l-3.7-3.1l1-1.2L16,3.1z"/>
	</g>
</g>
</svg>
