<?xml version="1.0" encoding="utf-8"?>
<!-- Generator: Adobe Illustrator 22.1.0, SVG Export Plug-In . SVG Version: 6.00 Build 0)  -->
<svg version="1.1" id="Слой_1" xmlns="http://www.w3.org/2000/svg" xmlns:xlink="http://www.w3.org/1999/xlink" x="0px" y="0px"
	 viewBox="0 0 20.8 21.8" style="enable-background:new 0 0 20.8 21.8;" xml:space="preserve">
<style type="text/css">
	.st0{fill:#FFFFFF;}
</style>
<title>icon-user-white</title>
<path class="st0" d="M14,12.3l-0.6-0.2l0.5-0.4c3-1.9,3.8-5.9,1.9-8.9S9.9-0.9,6.9,1S3.1,6.9,5,9.9c0.5,0.7,1.1,1.4,1.9,1.9l0.5,0.4
	l-0.6,0.2c-4,1.5-6.7,5.2-6.8,9.5h1.2c0.2-5.1,4.6-9.1,9.7-8.8c4.8,0.2,8.6,4,8.8,8.8h1.2C20.7,17.5,18,13.8,14,12.3 M5.2,6.4
	c0-2.9,2.4-5.2,5.2-5.2s5.2,2.4,5.2,5.2c0,2.9-2.3,5.2-5.2,5.2C7.5,11.7,5.2,9.3,5.2,6.4"/>
<path class="st0" d="M14,12.3l-0.6-0.2l0.5-0.4c3-1.9,3.8-5.9,1.9-8.9S9.9-0.9,6.9,1S3.1,6.9,5,9.9c0.5,0.7,1.1,1.4,1.9,1.9l0.5,0.4
	l-0.6,0.2c-4,1.5-6.7,5.2-6.8,9.5h1.2c0.2-5.1,4.6-9.1,9.7-8.8c4.8,0.2,8.6,4,8.8,8.8h1.2C20.7,17.5,18,13.8,14,12.3 M5.2,6.4
	c0-2.9,2.4-5.2,5.2-5.2s5.2,2.4,5.2,5.2c0,2.9-2.3,5.2-5.2,5.2C7.5,11.7,5.2,9.3,5.2,6.4"/>
</svg>
