<svg xmlns="http://www.w3.org/2000/svg" viewBox="0 0 18.83 18.83"><g data-name="Слой 2"><path d="M16.1 6.64l2.73 2.78-2.73 2.77v3.9h-3.91l-2.77 2.74-2.78-2.74H2.73v-3.9L0 9.42l2.73-2.78V2.73h3.91L9.42 0l2.77 2.73h3.91zM5.88 13a4.81 4.81 0 0 0 3.54 1.47A4.82 4.82 0 0 0 13 13a4.8 4.8 0 0 0 1.47-3.53A4.83 4.83 0 0 0 13 5.88a4.82 4.82 0 0 0-3.58-1.47 4.81 4.81 0 0 0-3.54 1.47 4.83 4.83 0 0 0-1.47 3.54A4.8 4.8 0 0 0 5.88 13zm1.19-5.93a3.3 3.3 0 0 1 4.69 0 3.3 3.3 0 0 1 0 4.69 3.3 3.3 0 0 1-4.69 0 3.3 3.3 0 0 1 0-4.69z" fill="#f9fff2" data-name="Layer 1"/></g></svg>