<svg xmlns="http://www.w3.org/2000/svg" viewBox="0 0 12.38 15.75"><g data-name="Слой 2"><g data-name="Layer 1" fill="#f9fff2"><path d="M12.38 3.48v2.71h-.57v8.26a1.36 1.36 0 0 1-.33.93 1.13 1.13 0 0 1-.9.37H1.79a1.13 1.13 0 0 1-.89-.37 1.32 1.32 0 0 1-.34-.93V6.19H0V3.48q0-1.23 1.05-1.23h1.76V1.3a1.32 1.32 0 0 1 .34-.93A1.09 1.09 0 0 1 4 0h4.37a1.09 1.09 0 0 1 .86.37 1.36 1.36 0 0 1 .33.93v1h1.76c.68-.05 1.06.36 1.06 1.18zm-1.13-.1H1.12v1.68h10.13zm-.56 11.07V6.19h-9v8.26c0 .12 0 .17.1.17h8.79c.07 0 .11-.05.11-.17zM3.94 2.25h4.5V1.3c0-.12 0-.18-.07-.18H4s-.07.06-.07.18z"/><path d="M12.38 3.48v2.71h-.57v8.26a1.36 1.36 0 0 1-.33.93 1.13 1.13 0 0 1-.9.37H1.79a1.13 1.13 0 0 1-.89-.37 1.32 1.32 0 0 1-.34-.93V6.19H0V3.48q0-1.23 1.05-1.23h1.76V1.3a1.32 1.32 0 0 1 .34-.93A1.09 1.09 0 0 1 4 0h4.37a1.09 1.09 0 0 1 .86.37 1.36 1.36 0 0 1 .33.93v1h1.76c.68-.05 1.06.36 1.06 1.18zm-1.13-.1H1.12v1.68h10.13zm-.56 11.07V6.19h-9v8.26c0 .12 0 .17.1.17h8.79c.07 0 .11-.05.11-.17zM3.94 2.25h4.5V1.3c0-.12 0-.18-.07-.18H4s-.07.06-.07.18z"/></g></g></svg>