<svg xmlns="http://www.w3.org/2000/svg" viewBox="0 0 19.61 17.81"><g data-name="Слой 2"><g data-name="Layer 1"><path d="M0 17.81V7.13h3.59v10.68zM19.61 8v1.8a1.74 1.74 0 0 1-.13.67l-2.71 6.26a1.59 1.59 0 0 1-1.63 1.08h-8A1.85 1.85 0 0 1 5.34 16V7.13a1.72 1.72 0 0 1 .54-1.25L11.72 0l1 1a1.26 1.26 0 0 1 .38.92v.29l-.88 4.09h5.63a1.72 1.72 0 0 1 1.25.52A1.64 1.64 0 0 1 19.61 8z" fill="#7e8c91"/><path d="M0 17.81V7.13h3.59v10.68zM19.61 8v1.8a1.74 1.74 0 0 1-.13.67l-2.71 6.26a1.59 1.59 0 0 1-1.63 1.08h-8A1.85 1.85 0 0 1 5.34 16V7.13a1.72 1.72 0 0 1 .54-1.25L11.72 0l1 1a1.26 1.26 0 0 1 .38.92v.29l-.88 4.09h5.63a1.72 1.72 0 0 1 1.25.52A1.64 1.64 0 0 1 19.61 8z" fill="#a2a9b1"/></g></g></svg>