<?xml version="1.0" encoding="utf-8"?>
<!-- Generator: Adobe Illustrator 22.1.0, SVG Export Plug-In . SVG Version: 6.00 Build 0)  -->
<svg version="1.1" id="Слой_1" xmlns="http://www.w3.org/2000/svg" xmlns:xlink="http://www.w3.org/1999/xlink" x="0px" y="0px"
	 viewBox="0 0 12.9 17.7" style="enable-background:new 0 0 12.9 17.7;" xml:space="preserve">
<style type="text/css">
	.st0{fill:#FFFFFF;}
</style>
<title>icon-reload-white</title>
<g id="Слой_2_1_">
	<g id="Layer_1">
		<path class="st0" d="M6.4,13.7v-2.4l3.2,3.2l-3.2,3.2v-2.4c-1.7,0-3.4-0.7-4.5-1.9C0.7,12.2,0,10.6,0,8.9c0-1.2,0.3-2.4,1-3.4
			l1.2,1.2C1.8,7.3,1.6,8.1,1.6,8.9c0,1.3,0.5,2.5,1.4,3.4C3.9,13.2,5.1,13.7,6.4,13.7z M6.4,2.4c1.7,0,3.4,0.7,4.6,1.9
			c1.2,1.2,1.9,2.8,1.9,4.5c0,1.2-0.3,2.4-1,3.4l-1.2-1.2c0.4-0.7,0.6-1.5,0.6-2.3c0-1.3-0.5-2.5-1.4-3.4C9,4.5,7.7,4,6.4,4v2.4
			L3.2,3.2L6.4,0V2.4z"/>
	</g>
</g>
</svg>
