<?xml version="1.0" encoding="utf-8"?>
<!-- Generator: Adobe Illustrator 22.1.0, SVG Export Plug-In . SVG Version: 6.00 Build 0)  -->
<svg version="1.1" id="Слой_1" xmlns="http://www.w3.org/2000/svg" xmlns:xlink="http://www.w3.org/1999/xlink" x="0px" y="0px"
	 viewBox="0 0 10.9 10.9" style="enable-background:new 0 0 10.9 10.9;" xml:space="preserve">
<style type="text/css">
	.st0{fill:#FFFFFF;}
</style>
<title>icon-search-small-white</title>
<g id="Слой_2_1_">
	<g id="Layer_1">
		<path class="st0" d="M7.8,6.9l3.1,3.1L10,10.9L6.9,7.8V7.3L6.7,7.1C6,7.8,5,8.1,4.1,8.1C3,8.1,1.9,7.7,1.2,6.9
			C0.4,6.2,0,5.1,0,4.1C0,3,0.4,1.9,1.2,1.2C1.9,0.4,3,0,4.1,0c1.1,0,2.1,0.4,2.9,1.2C7.7,1.9,8.1,3,8.1,4.1c0,1-0.4,1.9-1,2.6
			l0.2,0.2H7.8z M2.1,6.1c0.5,0.5,1.2,0.8,2,0.8c1.5,0,2.8-1.3,2.8-2.8c0,0,0,0,0,0c0-1.5-1.2-2.8-2.8-2.8c0,0,0,0-0.1,0
			C2.5,1.2,1.3,2.5,1.3,4c0,0,0,0,0,0.1C1.2,4.8,1.5,5.5,2.1,6.1z"/>
	</g>
</g>
</svg>
