<svg xmlns="http://www.w3.org/2000/svg" viewBox="0 0 18 21"><g data-name="Слой 2"><g data-name="Layer 1"><path d="M16 6.42A8.79 8.79 0 0 1 18 12a8.72 8.72 0 0 1-2.62 6.35A8.65 8.65 0 0 1 9 21a8.65 8.65 0 0 1-6.38-2.65A8.72 8.72 0 0 1 0 12a8.72 8.72 0 0 1 2.62-6.35A8.65 8.65 0 0 1 9 3a8.88 8.88 0 0 1 5.62 2L16 3.56A10.43 10.43 0 0 1 17.44 5zM4.05 17A6.72 6.72 0 0 0 9 19a6.72 6.72 0 0 0 5-2 6.85 6.85 0 0 0 2-5 6.77 6.77 0 0 0-2-4.95A6.77 6.77 0 0 0 9 5a6.77 6.77 0 0 0-4.95 2 6.77 6.77 0 0 0-2 5 6.85 6.85 0 0 0 2 5zM12 0v2H6V0zM8 13V7h2v6z" fill="#7e8c91"/><path d="M16 6.42A8.79 8.79 0 0 1 18 12a8.72 8.72 0 0 1-2.62 6.35A8.65 8.65 0 0 1 9 21a8.65 8.65 0 0 1-6.38-2.65A8.72 8.72 0 0 1 0 12a8.72 8.72 0 0 1 2.62-6.35A8.65 8.65 0 0 1 9 3a8.88 8.88 0 0 1 5.62 2L16 3.56A10.43 10.43 0 0 1 17.44 5zM4.05 17A6.72 6.72 0 0 0 9 19a6.72 6.72 0 0 0 5-2 6.85 6.85 0 0 0 2-5 6.77 6.77 0 0 0-2-4.95A6.77 6.77 0 0 0 9 5a6.77 6.77 0 0 0-4.95 2 6.77 6.77 0 0 0-2 5 6.85 6.85 0 0 0 2 5zM12 0v2H6V0zM8 13V7h2v6z" fill="#a2a9b1"/></g></g></svg>