<svg xmlns="http://www.w3.org/2000/svg" viewBox="0 0 15.75 15.75"><g data-name="Слой 2"><g data-name="Layer 1" fill="#f9fff2"><path d="M15.38.37a1.26 1.26 0 0 1 .37.93v13.15a1.26 1.26 0 0 1-1.3 1.3H1.3a1.26 1.26 0 0 1-1.3-1.3V1.3A1.26 1.26 0 0 1 1.3 0h13.15a1.26 1.26 0 0 1 .93.37zm-.76.93c0-.12 0-.18-.17-.18H1.3a.16.16 0 0 0-.18.18v13.15c0 .12.06.17.18.17h13.15c.12 0 .17 0 .17-.17zm-2.74 3.38l-3.23 3.2 3.23 3.19-.81.81-3.19-3.23-3.2 3.23-.81-.81L7.1 7.88l-3.23-3.2.81-.81 3.2 3.23 3.19-3.23z"/><path d="M15.38.37a1.26 1.26 0 0 1 .37.93v13.15a1.26 1.26 0 0 1-1.3 1.3H1.3a1.26 1.26 0 0 1-1.3-1.3V1.3A1.26 1.26 0 0 1 1.3 0h13.15a1.26 1.26 0 0 1 .93.37zm-.76.93c0-.12 0-.18-.17-.18H1.3a.16.16 0 0 0-.18.18v13.15c0 .12.06.17.18.17h13.15c.12 0 .17 0 .17-.17zm-2.74 3.38l-3.23 3.2 3.23 3.19-.81.81-3.19-3.23-3.2 3.23-.81-.81L7.1 7.88l-3.23-3.2.81-.81 3.2 3.23 3.19-3.23z"/></g></g></svg>