<svg xmlns="http://www.w3.org/2000/svg" viewBox="0 0 62.82 62.82"><g data-name="Слой 2"><g opacity=".2" data-name="Layer 1"><path d="M9.22 9.22A30.22 30.22 0 0 1 31.41 0 30.22 30.22 0 0 1 53.6 9.22a30.22 30.22 0 0 1 9.22 22.19A30.22 30.22 0 0 1 53.6 53.6a30.22 30.22 0 0 1-22.19 9.22A30.22 30.22 0 0 1 9.22 53.6 30.22 30.22 0 0 1 0 31.41 30.22 30.22 0 0 1 9.22 9.22zm4.42 40a24.27 24.27 0 0 0 17.77 7.45 24.29 24.29 0 0 0 17.77-7.45 24.27 24.27 0 0 0 7.45-17.77 24.29 24.29 0 0 0-7.45-17.77 24.29 24.29 0 0 0-17.77-7.49 24.27 24.27 0 0 0-17.77 7.45 24.25 24.25 0 0 0-7.45 17.77 24.24 24.24 0 0 0 7.45 17.77zm11.43-3.61V17.25l18.87 14.16z" fill="#f9fff2"/><path d="M9.22 9.22A30.22 30.22 0 0 1 31.41 0 30.22 30.22 0 0 1 53.6 9.22a30.22 30.22 0 0 1 9.22 22.19A30.22 30.22 0 0 1 53.6 53.6a30.22 30.22 0 0 1-22.19 9.22A30.22 30.22 0 0 1 9.22 53.6 30.22 30.22 0 0 1 0 31.41 30.22 30.22 0 0 1 9.22 9.22zm4.42 40a24.27 24.27 0 0 0 17.77 7.45 24.29 24.29 0 0 0 17.77-7.45 24.27 24.27 0 0 0 7.45-17.77 24.29 24.29 0 0 0-7.45-17.77 24.29 24.29 0 0 0-17.77-7.49 24.27 24.27 0 0 0-17.77 7.45 24.25 24.25 0 0 0-7.45 17.77 24.24 24.24 0 0 0 7.45 17.77zm11.43-3.61V17.25l18.87 14.16z" fill="#7e8c91"/></g></g></svg>