<svg xmlns="http://www.w3.org/2000/svg" viewBox="0 0 16 16.2"><path d="M4.7 1.2L1 4.3 0 3.1 3.7 0l1 1.2zM2.9 3.8C4.2 2.4 6.1 1.7 8 1.7c1.9 0 3.8.7 5.1 2.1 1.4 1.3 2.1 3.2 2.1 5.1 0 1.9-.7 3.7-2.1 5.1-1.3 1.4-3.2 2.2-5.1 2.2-1.9 0-3.8-.8-5.1-2.2C1.5 12.7.8 10.8.8 8.9c0-1.9.7-3.7 2.1-5.1zm1.2 9.1c1 1.1 2.5 1.7 4 1.7s3-.6 4-1.7c1.1-1.1 1.7-2.5 1.6-4 0-1.5-.6-2.9-1.7-3.9-1-1.1-2.5-1.7-4-1.7S5.1 3.9 4.1 5C3 6 2.4 7.5 2.4 9s.6 2.9 1.7 3.9zm1.5-5.6V5.7h4.8v1.4l-2.9 3.4h2.9v1.6H5.6v-1.5l2.9-3.3H5.6zM16 3.1l-1 1.2-3.7-3.1 1-1.2L16 3.1z" fill="#fff"/></svg>