<svg xmlns="http://www.w3.org/2000/svg" viewBox="0 0 17.42 27.2"><g data-name="Слой 2"><path d="M8.77 27.2L8 25.9a117.08 117.08 0 0 1-6.26-10.54A15.19 15.19 0 0 1 0 8.65a8.77 8.77 0 0 1 2.65-6.12A8.32 8.32 0 0 1 8.77 0a8.32 8.32 0 0 1 6.12 2.53 8.33 8.33 0 0 1 2.53 6.12A14.75 14.75 0 0 1 15.86 15q-1.56 3.3-5.68 10zm4.8-23.34a6.54 6.54 0 0 0-4.8-2 6.54 6.54 0 0 0-4.8 2A6.53 6.53 0 0 0 2 8.65a13.8 13.8 0 0 0 1.5 5.83 97.21 97.21 0 0 0 5.27 9.18q3.77-6.12 5.27-9.27a13.51 13.51 0 0 0 1.5-5.74 6.53 6.53 0 0 0-1.97-4.79z" fill="#5a71e2" data-name="Layer 1"/></g></svg>