<svg xmlns="http://www.w3.org/2000/svg" viewBox="0 0 16.64 16.64"><defs><style>.cls-1{fill:#f9fff2;}</style></defs><title>icon-alert-level-immediate-white</title><g id="Слой_2" data-name="Слой 2"><g id="Layer_1" data-name="Layer 1"><path class="cls-1" d="M2.44,2.44A8,8,0,0,1,8.32,0,8,8,0,0,1,14.2,2.44a8,8,0,0,1,2.44,5.88A8,8,0,0,1,14.2,14.2a8,8,0,0,1-5.88,2.44A8,8,0,0,1,2.44,14.2,8,8,0,0,1,0,8.32,8,8,0,0,1,2.44,2.44ZM3.61,13a6.46,6.46,0,0,0,4.71,2A6.46,6.46,0,0,0,13,13a6.46,6.46,0,0,0,2-4.71,6.46,6.46,0,0,0-2-4.71,6.46,6.46,0,0,0-4.71-2,6.46,6.46,0,0,0-4.71,2,6.46,6.46,0,0,0-2,4.71A6.46,6.46,0,0,0,3.61,13ZM7.5,4.14H9.14v5H7.5Zm0,6.68H9.14V12.5H7.5Z"/></g></g></svg>