<svg xmlns="http://www.w3.org/2000/svg" viewBox="0 0 14.66 14.63"><title>icon-link-white-btn</title><g id="Слой_2" data-name="Слой 2"><g id="Layer_1" data-name="Layer 1"><path d="M3.23,1.16a1.91,1.91,0,0,0-1.47.6,1.93,1.93,0,0,0-.64,1.51,1.93,1.93,0,0,0,.64,1.51l1.9,1.9-.78.81L1,5.55A3.11,3.11,0,0,1,0,3.27,3.32,3.32,0,0,1,1,1,3.32,3.32,0,0,1,3.27,0,3.22,3.22,0,0,1,5.55.91L8.82,4.15a3.13,3.13,0,0,1,1,2.21A4.23,4.23,0,0,1,8.54,9.07a.52.52,0,0,1-.38.14.53.53,0,0,1-.39-.14.74.74,0,0,1-.18-.42.54.54,0,0,1,.18-.39,2.5,2.5,0,0,0,.9-1.69A2,2,0,0,0,8.05,5L4.78,1.76A2.17,2.17,0,0,0,3.23,1.16Zm11.43,10.2a3.2,3.2,0,0,1-1,2.32,3.33,3.33,0,0,1-2.32.94,3.11,3.11,0,0,1-2.29-.94L5.8,10.41a2.89,2.89,0,0,1-1-2.32A3.87,3.87,0,0,1,6.08,5.55a.5.5,0,0,1,.78,0A.85.85,0,0,1,7,6a.53.53,0,0,1-.17.38A3,3,0,0,0,6,8.16a2.17,2.17,0,0,0,.59,1.47l3.27,3.24a2.18,2.18,0,0,0,1.55.59,1.94,1.94,0,0,0,1.48-.59,2.07,2.07,0,0,0,.63-1.51,2.09,2.09,0,0,0-.63-1.52L11,8l.77-.77,1.87,1.86A3.07,3.07,0,0,1,14.66,11.36Z" style="fill:#f9fff2"/><path d="M3.23,1.16a1.91,1.91,0,0,0-1.47.6,1.93,1.93,0,0,0-.64,1.51,1.93,1.93,0,0,0,.64,1.51l1.9,1.9-.78.81L1,5.55A3.11,3.11,0,0,1,0,3.27,3.32,3.32,0,0,1,1,1,3.32,3.32,0,0,1,3.27,0,3.22,3.22,0,0,1,5.55.91L8.82,4.15a3.13,3.13,0,0,1,1,2.21A4.23,4.23,0,0,1,8.54,9.07a.52.52,0,0,1-.38.14.53.53,0,0,1-.39-.14.74.74,0,0,1-.18-.42.54.54,0,0,1,.18-.39,2.5,2.5,0,0,0,.9-1.69A2,2,0,0,0,8.05,5L4.78,1.76A2.17,2.17,0,0,0,3.23,1.16Zm11.43,10.2a3.2,3.2,0,0,1-1,2.32,3.33,3.33,0,0,1-2.32.94,3.11,3.11,0,0,1-2.29-.94L5.8,10.41a2.89,2.89,0,0,1-1-2.32A3.87,3.87,0,0,1,6.08,5.55a.5.5,0,0,1,.78,0A.85.85,0,0,1,7,6a.53.53,0,0,1-.17.38A3,3,0,0,0,6,8.16a2.17,2.17,0,0,0,.59,1.47l3.27,3.24a2.18,2.18,0,0,0,1.55.59,1.94,1.94,0,0,0,1.48-.59,2.07,2.07,0,0,0,.63-1.51,2.09,2.09,0,0,0-.63-1.52L11,8l.77-.77,1.87,1.86A3.07,3.07,0,0,1,14.66,11.36Z" style="fill:#f9fff2"/></g></g></svg>