<svg xmlns="http://www.w3.org/2000/svg" viewBox="0 0 13.4 17.89"><defs><style>.cls-1{fill:#f9fff2;}</style></defs><title>icon-alert-level-high-white</title><g id="Слой_2" data-name="Слой 2"><g id="Layer_1" data-name="Layer 1"><path class="cls-1" d="M5.82,14.88,0,13.75l.31-1.68,4.1.82L5.74,6.13l-1.52.59V9.57H2.58V5.66L6.92,3.83a1.77,1.77,0,0,0,.33,0,1.6,1.6,0,0,1,.33,0A1.71,1.71,0,0,1,9,4.57L9.81,5.9a3.82,3.82,0,0,0,3.59,2V9.57A5.79,5.79,0,0,1,8.83,7.5L8.32,10l1.76,1.64v6.25H8.4v-5L6.64,11.25ZM10,2.81a1.53,1.53,0,0,1-1.15.51,1.61,1.61,0,0,1-1.17-.51,1.61,1.61,0,0,1-.51-1.17A1.53,1.53,0,0,1,7.66.49,1.63,1.63,0,0,1,8.83,0,1.55,1.55,0,0,1,10,.49a1.55,1.55,0,0,1,.49,1.15A1.63,1.63,0,0,1,10,2.81Z"/></g></g></svg>