<svg id="Слой_1" xmlns="http://www.w3.org/2000/svg" viewBox="0 0 42.9 29.6"><style>.st0{fill:#fff}</style><g id="Слой_2_1_"><g id="Layer_1"><path class="st0" d="M18.3 26.5c-2.1 1.9-4.9 2.9-7.7 2.8H0V0h10.6c2.9-.1 5.6.9 7.7 2.8 3.3 3.3 3 7.3 3 11.7s.3 8.7-3 12zm-4-19.6c-1-1.3-2.7-1.9-4.3-1.8H5.7v19.1H10c1.6.1 3.2-.6 4.3-1.8 1.1-1.3 1.2-3.4 1.2-7.9s-.1-6.3-1.2-7.6zm19.5 22.7c-3.4 0-6.4-.4-9.1-3.1l3.5-3.5c1.6 1.4 3.6 2.1 5.7 2 1.8 0 3.8-.6 3.8-2.2 0-1.1-.6-1.8-2.3-2l-3.4-.3c-3.9-.4-6.3-2.1-6.3-6 0-4.4 3.9-6.8 8.3-6.8 3.3 0 6.1.6 8.2 2.5l-3.3 3.3c-1.4-1.1-3.2-1.6-5-1.4-2.1 0-3 1-3 2.1 0 .8.3 1.7 2.2 1.9l3.4.3c4.2.4 6.4 2.7 6.4 6.3 0 4.6-4.1 6.9-9.1 6.9z"/><path class="st0" d="M18.3 26.5c-2.1 1.9-4.9 2.9-7.7 2.8H0V0h10.6c2.9-.1 5.6.9 7.7 2.8 3.3 3.3 3 7.3 3 11.7s.3 8.7-3 12zm-4-19.6c-1-1.3-2.7-1.9-4.3-1.8H5.7v19.1H10c1.6.1 3.2-.6 4.3-1.8 1.1-1.3 1.2-3.4 1.2-7.9s-.1-6.3-1.2-7.6zm19.5 22.7c-3.4 0-6.4-.4-9.1-3.1l3.5-3.5c1.6 1.4 3.6 2.1 5.7 2 1.8 0 3.8-.6 3.8-2.2 0-1.1-.6-1.8-2.3-2l-3.4-.3c-3.9-.4-6.3-2.1-6.3-6 0-4.4 3.9-6.8 8.3-6.8 3.3 0 6.1.6 8.2 2.5l-3.3 3.3c-1.4-1.1-3.2-1.6-5-1.4-2.1 0-3 1-3 2.1 0 .8.3 1.7 2.2 1.9l3.4.3c4.2.4 6.4 2.7 6.4 6.3 0 4.6-4.1 6.9-9.1 6.9z"/></g></g></svg>