<?xml version="1.0" encoding="utf-8"?>
<!-- Generator: Adobe Illustrator 22.1.0, SVG Export Plug-In . SVG Version: 6.00 Build 0)  -->
<svg version="1.1" id="Слой_1" xmlns="http://www.w3.org/2000/svg" xmlns:xlink="http://www.w3.org/1999/xlink" x="0px" y="0px"
	 viewBox="0 0 42.9 29.6" style="enable-background:new 0 0 42.9 29.6;" xml:space="preserve">
<style type="text/css">
	.st0{fill:#FFFFFF;}
</style>
<title>Ресурс 1</title>
<g id="Слой_2_1_">
	<g id="Layer_1">
		<path class="st0" d="M18.3,26.5c-2.1,1.9-4.9,2.9-7.7,2.8H0V0h10.6c2.9-0.1,5.6,0.9,7.7,2.8c3.3,3.3,3,7.3,3,11.7
			S21.6,23.2,18.3,26.5z M14.3,6.9C13.3,5.6,11.6,5,10,5.1H5.7v19.1H10c1.6,0.1,3.2-0.6,4.3-1.8c1.1-1.3,1.2-3.4,1.2-7.9
			S15.4,8.2,14.3,6.9L14.3,6.9z"/>
		<path class="st0" d="M33.8,29.6c-3.4,0-6.4-0.4-9.1-3.1l3.5-3.5c1.6,1.4,3.6,2.1,5.7,2c1.8,0,3.8-0.6,3.8-2.2c0-1.1-0.6-1.8-2.3-2
			L32,20.5c-3.9-0.4-6.3-2.1-6.3-6c0-4.4,3.9-6.8,8.3-6.8c3.3,0,6.1,0.6,8.2,2.5l-3.3,3.3c-1.4-1.1-3.2-1.6-5-1.4c-2.1,0-3,1-3,2.1
			c0,0.8,0.3,1.7,2.2,1.9l3.4,0.3c4.2,0.4,6.4,2.7,6.4,6.3C42.9,27.3,38.8,29.6,33.8,29.6z"/>
		<path class="st0" d="M18.3,26.5c-2.1,1.9-4.9,2.9-7.7,2.8H0V0h10.6c2.9-0.1,5.6,0.9,7.7,2.8c3.3,3.3,3,7.3,3,11.7
			S21.6,23.2,18.3,26.5z M14.3,6.9C13.3,5.6,11.6,5,10,5.1H5.7v19.1H10c1.6,0.1,3.2-0.6,4.3-1.8c1.1-1.3,1.2-3.4,1.2-7.9
			S15.4,8.2,14.3,6.9L14.3,6.9z"/>
		<path class="st0" d="M33.8,29.6c-3.4,0-6.4-0.4-9.1-3.1l3.5-3.5c1.6,1.4,3.6,2.1,5.7,2c1.8,0,3.8-0.6,3.8-2.2c0-1.1-0.6-1.8-2.3-2
			L32,20.5c-3.9-0.4-6.3-2.1-6.3-6c0-4.4,3.9-6.8,8.3-6.8c3.3,0,6.1,0.6,8.2,2.5l-3.3,3.3c-1.4-1.1-3.2-1.6-5-1.4c-2.1,0-3,1-3,2.1
			c0,0.8,0.3,1.7,2.2,1.9l3.4,0.3c4.2,0.4,6.4,2.7,6.4,6.3C42.9,27.3,38.8,29.6,33.8,29.6z"/>
	</g>
</g>
</svg>
