<?xml version="1.0" encoding="utf-8"?>
<!-- Generator: Adobe Illustrator 22.1.0, SVG Export Plug-In . SVG Version: 6.00 Build 0)  -->
<svg version="1.1" id="Layer_1" xmlns="http://www.w3.org/2000/svg" xmlns:xlink="http://www.w3.org/1999/xlink" x="0px" y="0px"
	 viewBox="0 0 25.8 25.8" style="enable-background:new 0 0 25.8 25.8;" xml:space="preserve">
<style type="text/css">
	.st0{fill:#F0EEE6;}
	.st1{fill:#192735;}
	.st2{fill:#D85803;}
</style>
<title>mob_with_frame_B_1</title>
<g id="Layer_2_3_">
	<g id="bgs_2_">
		<path class="st0" d="M12.9,2c6,0,10.9,4.9,10.9,10.9S19,23.8,12.9,23.8S2,19,2,12.9S6.9,2,12.9,2L12.9,2"/>
		<path class="st0" d="M12.9,0C5.8,0,0,5.8,0,12.9s5.8,12.9,12.9,12.9S25.8,20,25.8,12.9l0,0C25.8,5.8,20.1,0,12.9,0z"/>
		<path class="st1" d="M12.9,2C6.9,2,2,6.9,2,12.9s4.9,10.9,10.9,10.9s11-4.8,11-10.9l0,0C23.8,6.9,18.9,2,12.9,2L12.9,2z"/>
		<path class="st2" d="M12.9,3.9c5,0,9,4,9,9s-4,9-9,9s-9-4-9-9S7.9,3.9,12.9,3.9"/>
	</g>
</g>
<g id="Layer_2_4_">
	<g id="bgs_3_">
		<path class="st1" d="M16.7,9.9H7.4c-0.1,0-0.1,0-0.2,0.1v6.1c0,0.1,0.1,0.1,0.2,0.1h9.3V9.9z M19.8,11.4l-2.1,1.3v0.7l2.1,1.3
			V11.4z"/>
	</g>
</g>
</svg>
