<?xml version="1.0" encoding="utf-8"?>
<!-- Generator: Adobe Illustrator 22.1.0, SVG Export Plug-In . SVG Version: 6.00 Build 0)  -->
<svg version="1.1" id="Слой_1" xmlns="http://www.w3.org/2000/svg" xmlns:xlink="http://www.w3.org/1999/xlink" x="0px" y="0px"
	 viewBox="0 0 158 150" style="enable-background:new 0 0 158 150;" xml:space="preserve">
<style type="text/css">
	.st0{opacity:0.65;fill:#FFFFFF;enable-background:new    ;}
</style>
<path class="st0" d="M146.6,126.6c-3.4-1.7-9-3.1-16.2-5c-2.9-0.8-6.1-1.6-9.1-2.5c-0.3-0.2-0.7-0.3-1-0.4l-5.5-1.6
	c-1-0.3-1.9-0.7-2.7-1l-0.4-0.1c-1-0.4-2-0.8-2.8-1.2c-0.1,0-0.2-0.1-0.3-0.1c-0.4-0.2-0.7-0.4-1-0.5l-0.2-0.1
	c-0.3-0.2-0.7-0.4-0.8-0.5l-0.2-0.2c-0.3-0.2-0.6-0.4-0.9-0.6c0,0-0.1,0-0.1-0.1c-0.2-0.2-0.4-0.3-0.7-0.5c0,0,0,0-0.1-0.1l-0.1-0.1
	c-0.1-0.1-0.3-0.3-0.5-0.5c-0.1-0.1-0.2-0.3-0.4-0.4l0,0l-0.1-0.1c0-0.1-0.1-0.1-0.1-0.2s-0.1-0.2-0.1-0.2l-5.3,2.9l5-3h0.2
	c0,0,0,0,0-0.1l0,0c0,0,0-0.1,0-0.2l0,0v-3.7c5.7-5.3,10-12.5,12.2-20.5c4.2-2.6,7.1-8.9,7.4-17c0.1-3.8-0.3-7.4-1.4-10.3
	c1.7-4.2,3.1-9,4.3-14.4c0.3-1.2,0.2-2.4-0.3-3.5C124.7,39,109.4,0,82,0c-8.5,0-17,3.8-25.3,11.3c-3.9,1.1-13.1,4.6-18.4,12.8
	C34.4,30,33.4,37,35.2,45c1,4.6,2.2,8.2,3.4,11.4c-1.6,3.3-2.4,7.7-2.2,12.5c0.3,8.1,3.2,14.4,7.4,17C46,94,50.2,101.1,56,106.4v3.7
	c0,0,0,0.1,0,0.2c0-0.1,0-0.2,0-0.2v0.2l0,0v0.1c0,0,0,0,0-0.1c0,0.1-0.1,0.3-0.1,0.3v0.1c0,0.1-0.1,0.2-0.2,0.3l-0.1,0.1
	c-0.1,0.1-0.2,0.3-0.3,0.3l4.3,4.2l0,0l-4.5-4c-0.1,0.1-0.3,0.3-0.4,0.4l-0.2,0.1c-0.2,0.2-0.4,0.3-0.7,0.5l-0.1,0.1
	c-0.3,0.2-0.6,0.4-0.9,0.6c-0.1,0-0.1,0.1-0.2,0.1c-0.3,0.2-0.5,0.3-0.9,0.5l-0.3,0.1c-0.3,0.2-0.6,0.3-1.1,0.5l-0.1,0.1
	c-0.9,0.4-1.8,0.8-2.9,1.2l-8.6,2.9c-3.9,1.1-7.8,2.1-11.6,3c-6.5,1.6-11.6,2.8-14.8,4.4c-3,1.5-12.3,6-12.3,17.7c0,2.9,2.2,6,6.2,6
	h1.7H8h144c3.3,0,6-2.7,6-6C158,132.2,149.8,128.1,146.6,126.6z M109.5,121.6L109.5,121.6L109.5,121.6L109.5,121.6z"/>
</svg>
